<svg width="16" height="16" viewBox="0 0 16 16" fill="none" xmlns="http://www.w3.org/2000/svg">
<path d="M8 16C10.1217 16 12.1566 15.1571 13.6569 13.6569C15.1571 12.1566 16 10.1217 16 8C16 5.87827 15.1571 3.84344 13.6569 2.34315C12.1566 0.842854 10.1217 0 8 0C5.87827 0 3.84344 0.842854 2.34315 2.34315C0.842854 3.84344 0 5.87827 0 8C0 10.1217 0.842854 12.1566 2.34315 13.6569C3.84344 15.1571 5.87827 16 8 16V16ZM4.5 8.5C4.36739 8.5 4.24021 8.44732 4.14645 8.35355C4.05268 8.25979 4 8.13261 4 8C4 7.86739 4.05268 7.74021 4.14645 7.64645C4.24021 7.55268 4.36739 7.5 4.5 7.5L10.293 7.5L8.146 5.354C8.09951 5.30751 8.06264 5.25232 8.03748 5.19158C8.01232 5.13084 7.99937 5.06574 7.99937 5C7.99937 4.93426 8.01232 4.86916 8.03748 4.80842C8.06264 4.74768 8.09951 4.69249 8.146 4.646C8.19249 4.59951 8.24768 4.56264 8.30842 4.53748C8.36916 4.51232 8.43426 4.49937 8.5 4.49937C8.56574 4.49937 8.63084 4.51232 8.69158 4.53748C8.75232 4.56264 8.80751 4.59951 8.854 4.646L11.854 7.646C11.9006 7.69245 11.9375 7.74762 11.9627 7.80837C11.9879 7.86911 12.0009 7.93423 12.0009 8C12.0009 8.06577 11.9879 8.13089 11.9627 8.19163C11.9375 8.25238 11.9006 8.30755 11.854 8.354L8.854 11.354C8.76011 11.4479 8.63278 11.5006 8.5 11.5006C8.36722 11.5006 8.23989 11.4479 8.146 11.354C8.05211 11.2601 7.99937 11.1328 7.99937 11C7.99937 10.8672 8.05211 10.7399 8.146 10.646L10.293 8.5L4.5 8.5Z" fill="white"/>
</svg>
